<svg xmlns="http://www.w3.org/2000/svg" viewBox="0 0 512 512" width="512" height="512">
  <defs>
    <linearGradient id="brandGradient" x1="0%" y1="0%" x2="100%" y2="100%">
      <stop offset="0%" stop-color="#3772FF" />
      <stop offset="50%" stop-color="#F038FF" />
      <stop offset="100%" stop-color="#EF709D" />
    </linearGradient>

    <filter id="dropShadow" x="-20%" y="-20%" width="140%" height="140%">
      <feDropShadow dx="0" dy="15" stdDeviation="15" flood-color="#000000" flood-opacity="0.3"/>
    </filter>
  </defs>

  <rect width="512" height="512" rx="115" fill="url(#brandGradient)" />
  
  <rect x="12" y="12" width="488" height="488" rx="103" fill="none" stroke="#FFFFFF" stroke-width="4" stroke-opacity="0.3" />

  <g filter="url(#dropShadow)">
    <path fill="#FFFFFF" transform="translate(141, 90) scale(0.45)" d="M256 0c-141.4 0-256 114.6-256 256s114.6 256 256 256 256-114.6 256-256-114.6-256-256-256zm0 42c35.7 0 69.3 9 98.8 24.8l-47.5 88-102.7 0-47.5-88c29.5-15.8 63.1-24.8 98.8-24.8zm-122 34.5l42.2 77.9-33.3 102.3-95-30.8c9.3-58.9 41.5-109.5 86.1-149.4zm244 0c44.6 39.9 76.8 90.5 86.1 149.4l-95 30.8-33.3-102.3 42.2-77.9zm-206.5 97l84.6 0 26.1 80.5-68.4 49.7-68.4-49.7 26.1-80.5zm-72.3 122l28.6 88.4-65 89.6c-43.3-41.3-72.2-95.6-79.6-155.8l116-22.2zm229 0l116 22.2c-7.4 60.2-36.3 114.5-79.6 155.8l-65-89.6 28.6-88.4zm-114.5 63.2l60.7 44.1-23.2 71.4c-12 2.4-24.6 3.6-37.5 3.6s-25.5-1.2-37.5-3.6l-23.2-71.4 60.7-44.1z"/>
    
    <text x="256" y="420" font-family="'Impact', 'Arial Black', sans-serif" font-size="105" font-weight="900" fill="#FFFFFF" text-anchor="middle" letter-spacing="4">WK 26</text>
  </g>
  
  <path d="M110 110 Q110 80 140 80 Q110 80 110 50 Q110 80 80 80 Q110 80 110 110 Z" fill="#FFFFFF" opacity="0.6" />
  <path d="M420 280 Q420 260 440 260 Q420 260 420 240 Q420 260 400 260 Q420 260 420 280 Z" fill="#FFFFFF" opacity="0.4" />
</svg>
